<svg xmlns="http://www.w3.org/2000/svg" width="1000" height="1800" fill="none" viewBox="0 0 1000 1800"><path fill="#000" fill-rule="evenodd" d="M386.411 466.312C407.586 467.015 405.979 553.968 471.449 503.432C506.983 476.08 568.802 481.291 613.828 454.46C658.854 427.629 713.591 390.977 703.54 332.574C693.512 274.197 724.909 226.344 724.592 246.871L734.547 341.145C836.037 242.417 767.647 97.5824 818.246 0.235729C827.13 -6.14638 836.281 118.682 839.688 178.075C839.688 195.007 827.276 222.88 856.238 226.527C875.563 226.84 893.257 214.857 901.264 196.049C924.386 155.673 920.492 109.305 925.603 65.8021C927.063 53.2983 927.306 39.7526 928.28 28.2908C929.253 16.8291 943.832 -5.78131 947.75 16.9077L952.618 160.362C987.422 132.228 976.737 38.8411 993.506 66.8443C1011.32 125.351 991.632 189.459 944.83 225.224C835.794 319.263 744.282 437.528 613.098 500.828C587.543 513.071 586.57 528.961 595.331 554.489C618.453 622.739 609.935 681.35 549.819 726.676C524.045 746.056 512.289 780.572 520.369 813.16C537.163 907.198 560.041 996.808 615.045 1076.78C716.78 1224.48 702.177 1409.43 583.892 1544.11C556.56 1571.82 538.599 1608.47 532.782 1648.3C530.348 1668.26 525.018 1687.66 516.962 1705.87C500.655 1743.91 490.92 1797.31 445.894 1799.91C400.868 1802.52 397.217 1746.51 382.614 1712.13C350.293 1631.42 309.478 1554.94 260.923 1484.19C179.633 1369.32 174.522 1244.28 209.812 1112.47C228.066 1044.74 217.357 1024.94 155.051 1043.18C92.7451 1061.41 63.5391 1021.56 40.9044 981.7C18.2698 941.844 50.3964 910.064 80.0891 881.409C166.977 797.53 166.733 779.296 91.2845 675.098C65.7293 639.671 42.608 602.42 17.0528 566.211C9.02112 554.489 -7.28544 543.548 3.6668 528.179C14.619 512.81 30.9257 518.541 43.3382 524.793C98.9026 555.218 157.193 579.47 217.357 597.21C153.347 497.18 49.1794 436.746 56.2375 310.666C56.6026 301.914 61.8353 289.567 70.1103 292.172C80.2351 292.614 118.787 390.638 166.003 367.715C213.22 344.791 190.342 282.794 176.956 237.468C163.569 192.142 145.316 148.378 152.617 98.8845C157.242 92.1117 160.892 89.0905 165.955 98.9632C167.245 102.714 167.707 103.574 168.681 105.658C182.553 135.354 183.283 186.671 219.061 185.108C248.267 183.806 243.399 133.01 256.299 105.137C261.045 93.9357 262.529 81.9267 268.711 70.7515C280.929 50.6935 278.203 66.2969 282.341 99.9267C286.502 133.557 287.208 158.278 273.822 193.966C235.124 298.163 191.315 405.486 234.394 523.23C244.957 550.139 263.868 572.307 287.938 586.009C322.499 609.453 347.567 588.354 371.662 574.808C407.439 554.75 376.116 493.43 376.116 493.43C376.116 493.43 359.469 464.332 386.411 466.312Z" clip-rule="evenodd"/></svg>